<mxfile host="app.diagrams.net" modified="2021-03-17T11:55:34.678Z" agent="5.0 (Macintosh; Intel Mac OS X 11_2_3) AppleWebKit/537.36 (KHTML, like Gecko) Chrome/89.0.4389.82 Safari/537.36" etag="pROAs2YEX90Hyoo-pqlm" version="14.4.8" type="github">
  <diagram id="DDyWShpIytVCfgVJ-_LT" name="第 1 页">
    <mxGraphModel dx="946" dy="537" grid="0" gridSize="10" guides="1" tooltips="1" connect="1" arrows="1" fold="1" page="1" pageScale="1" pageWidth="827" pageHeight="1169" math="0" shadow="0">
      <root>
        <mxCell id="0" />
        <mxCell id="1" parent="0" />
        <mxCell id="bsKOpfMS5aqEckBFsZ0F-31" style="edgeStyle=orthogonalEdgeStyle;rounded=0;orthogonalLoop=1;jettySize=auto;html=1;exitX=0.5;exitY=0.5;exitDx=0;exitDy=0;exitPerimeter=0;" parent="1" source="bsKOpfMS5aqEckBFsZ0F-1" target="bsKOpfMS5aqEckBFsZ0F-14" edge="1">
          <mxGeometry relative="1" as="geometry" />
        </mxCell>
        <mxCell id="bsKOpfMS5aqEckBFsZ0F-1" value="Actor" style="shape=umlActor;verticalLabelPosition=bottom;verticalAlign=top;html=1;outlineConnect=0;" parent="1" vertex="1">
          <mxGeometry x="67" y="66" width="30" height="60" as="geometry" />
        </mxCell>
        <mxCell id="bsKOpfMS5aqEckBFsZ0F-6" value="" style="points=[];aspect=fixed;html=1;align=center;shadow=0;dashed=0;image;image=img/lib/allied_telesis/computer_and_terminals/Keypad.svg;" parent="1" vertex="1">
          <mxGeometry x="363.05" y="60.5" width="39.05" height="71" as="geometry" />
        </mxCell>
        <mxCell id="bsKOpfMS5aqEckBFsZ0F-20" value="" style="edgeStyle=orthogonalEdgeStyle;rounded=0;orthogonalLoop=1;jettySize=auto;html=1;" parent="1" source="bsKOpfMS5aqEckBFsZ0F-9" target="bsKOpfMS5aqEckBFsZ0F-12" edge="1">
          <mxGeometry relative="1" as="geometry" />
        </mxCell>
        <mxCell id="bsKOpfMS5aqEckBFsZ0F-9" value="模型库" style="points=[];aspect=fixed;html=1;align=center;shadow=0;dashed=0;image;image=img/lib/allied_telesis/storage/Datacenter_Server_Rack_EoR.svg;" parent="1" vertex="1">
          <mxGeometry x="312" y="168.4" width="85.8" height="173.4" as="geometry" />
        </mxCell>
        <mxCell id="bsKOpfMS5aqEckBFsZ0F-12" value="" style="points=[];aspect=fixed;html=1;align=center;shadow=0;dashed=0;image;image=img/lib/allied_telesis/storage/Datacenter_Server_Rack_ToR.svg;rotation=-120;" parent="1" vertex="1">
          <mxGeometry x="496" y="165.70000000000002" width="88.2" height="178.8" as="geometry" />
        </mxCell>
        <mxCell id="bsKOpfMS5aqEckBFsZ0F-30" value="" style="edgeStyle=orthogonalEdgeStyle;rounded=0;orthogonalLoop=1;jettySize=auto;html=1;" parent="1" source="bsKOpfMS5aqEckBFsZ0F-14" target="bsKOpfMS5aqEckBFsZ0F-27" edge="1">
          <mxGeometry relative="1" as="geometry" />
        </mxCell>
        <mxCell id="bsKOpfMS5aqEckBFsZ0F-14" value="" style="points=[];aspect=fixed;html=1;align=center;shadow=0;dashed=0;image;image=img/lib/allied_telesis/storage/Datacenter_Server_Half_Rack_ToR.svg;rotation=-120;" parent="1" vertex="1">
          <mxGeometry x="165" y="39.19999999999999" width="88.2" height="114.6" as="geometry" />
        </mxCell>
        <mxCell id="bsKOpfMS5aqEckBFsZ0F-19" value="" style="edgeStyle=orthogonalEdgeStyle;rounded=0;orthogonalLoop=1;jettySize=auto;html=1;" parent="1" target="bsKOpfMS5aqEckBFsZ0F-9" edge="1">
          <mxGeometry relative="1" as="geometry">
            <mxPoint x="283.9245948869757" y="255.10000000000002" as="sourcePoint" />
          </mxGeometry>
        </mxCell>
        <mxCell id="bsKOpfMS5aqEckBFsZ0F-22" style="edgeStyle=orthogonalEdgeStyle;rounded=0;orthogonalLoop=1;jettySize=auto;html=1;exitX=0.5;exitY=0.5;exitDx=0;exitDy=0;exitPerimeter=0;" parent="1" source="bsKOpfMS5aqEckBFsZ0F-21" edge="1">
          <mxGeometry relative="1" as="geometry">
            <mxPoint x="134.27540511302482" y="255.0999999999999" as="targetPoint" />
          </mxGeometry>
        </mxCell>
        <mxCell id="bsKOpfMS5aqEckBFsZ0F-21" value="Actor" style="shape=umlActor;verticalLabelPosition=bottom;verticalAlign=top;html=1;outlineConnect=0;" parent="1" vertex="1">
          <mxGeometry x="67" y="225.1" width="30" height="60" as="geometry" />
        </mxCell>
        <mxCell id="bsKOpfMS5aqEckBFsZ0F-23" value="&lt;span style=&quot;background-color: rgb(255 , 255 , 255)&quot;&gt;设计&lt;/span&gt;" style="text;html=1;strokeColor=none;fillColor=none;align=center;verticalAlign=middle;whiteSpace=wrap;rounded=0;" parent="1" vertex="1">
          <mxGeometry x="189" y="336" width="40" height="20" as="geometry" />
        </mxCell>
        <mxCell id="bsKOpfMS5aqEckBFsZ0F-28" value="" style="edgeStyle=orthogonalEdgeStyle;rounded=0;orthogonalLoop=1;jettySize=auto;html=1;" parent="1" source="bsKOpfMS5aqEckBFsZ0F-26" target="bsKOpfMS5aqEckBFsZ0F-9" edge="1">
          <mxGeometry relative="1" as="geometry" />
        </mxCell>
        <mxCell id="bsKOpfMS5aqEckBFsZ0F-26" value="模型" style="points=[];aspect=fixed;html=1;align=center;shadow=0;dashed=0;image;image=img/lib/allied_telesis/computer_and_terminals/Keypad.svg;" parent="1" vertex="1">
          <mxGeometry x="346.67" y="60.5" width="39.05" height="71" as="geometry" />
        </mxCell>
        <mxCell id="bsKOpfMS5aqEckBFsZ0F-27" value="" style="points=[];aspect=fixed;html=1;align=center;shadow=0;dashed=0;image;image=img/lib/allied_telesis/computer_and_terminals/Keypad.svg;" parent="1" vertex="1">
          <mxGeometry x="324" y="60.5" width="39.05" height="71" as="geometry" />
        </mxCell>
        <mxCell id="bsKOpfMS5aqEckBFsZ0F-29" value="原型" style="text;html=1;strokeColor=none;fillColor=none;align=center;verticalAlign=middle;whiteSpace=wrap;rounded=0;" parent="1" vertex="1">
          <mxGeometry x="193" y="154" width="40" height="20" as="geometry" />
        </mxCell>
        <mxCell id="bsKOpfMS5aqEckBFsZ0F-32" value="原型" style="text;html=1;strokeColor=none;fillColor=none;align=center;verticalAlign=middle;whiteSpace=wrap;rounded=0;" parent="1" vertex="1">
          <mxGeometry x="520" y="331" width="40" height="20" as="geometry" />
        </mxCell>
        <mxCell id="ev8WQkjlmZREuX6C9P3M-2" value="" style="shape=cube;whiteSpace=wrap;html=1;boundedLbl=1;backgroundOutline=1;darkOpacity=0.05;darkOpacity2=0.1;" vertex="1" parent="1">
          <mxGeometry x="149" y="218" width="120" height="80" as="geometry" />
        </mxCell>
      </root>
    </mxGraphModel>
  </diagram>
</mxfile>
